<svg width="152" height="28" viewBox="0 0 152 28" fill="none" xmlns="http://www.w3.org/2000/svg">
<g filter="url(#filter0_d_1_1065)">
<path d="M12.242 0.692098H15.57L17.676 6.8021L19.808 0.692098H23.11L19.938 9.0901L22.278 14.9661L27.504 0.640097H31.404L24.02 19.1001H20.926L17.676 11.3521L14.452 19.1001H11.358L4 0.640097H7.848L13.1 14.9661L15.388 9.0901L12.242 0.692098ZM38.227 19.3601C37.135 19.3601 36.147 19.1781 35.263 18.8141C34.379 18.4328 33.625 17.9214 33.001 17.2801C32.377 16.6214 31.8916 15.8761 31.545 15.0441C31.2156 14.1948 31.051 13.3021 31.051 12.3661C31.051 11.0661 31.337 9.87876 31.909 8.8041C32.4983 7.72943 33.3303 6.87143 34.405 6.2301C35.497 5.57143 36.7796 5.2421 38.253 5.2421C39.7436 5.2421 41.0176 5.57143 42.075 6.2301C43.1323 6.87143 43.9383 7.72943 44.493 8.8041C45.065 9.86143 45.351 11.0054 45.351 12.2361C45.351 12.4441 45.3423 12.6608 45.325 12.8861C45.3076 13.0941 45.2903 13.2674 45.273 13.4061H34.743C34.8123 14.0994 35.0116 14.7061 35.341 15.2261C35.6876 15.7461 36.121 16.1448 36.641 16.4221C37.1783 16.6821 37.7503 16.8121 38.357 16.8121C39.0503 16.8121 39.7003 16.6474 40.307 16.3181C40.931 15.9714 41.3556 15.5208 41.581 14.9661L44.571 15.7981C44.2416 16.4914 43.765 17.1068 43.141 17.6441C42.5343 18.1814 41.815 18.6061 40.983 18.9181C40.151 19.2128 39.2323 19.3601 38.227 19.3601ZM34.665 11.1961H41.789C41.7196 10.5028 41.5203 9.90476 41.191 9.4021C40.879 8.8821 40.463 8.48343 39.943 8.2061C39.423 7.91143 38.8423 7.7641 38.201 7.7641C37.577 7.7641 37.005 7.91143 36.485 8.2061C35.9823 8.48343 35.5663 8.8821 35.237 9.4021C34.925 9.90476 34.7343 10.5028 34.665 11.1961ZM56.0014 19.3601C54.9614 19.3601 54.0341 19.1261 53.2194 18.6581C52.4048 18.1901 51.7634 17.5488 51.2954 16.7341V19.1001H48.2534V0.120097H51.7374V7.8681C52.2228 7.05343 52.8554 6.4121 53.6354 5.9441C54.4328 5.4761 55.3601 5.2421 56.4174 5.2421C57.3014 5.2421 58.1074 5.43276 58.8354 5.8141C59.5634 6.1781 60.1874 6.68943 60.7074 7.3481C61.2448 8.00676 61.6521 8.76076 61.9294 9.6101C62.2241 10.4594 62.3714 11.3694 62.3714 12.3401C62.3714 13.3108 62.2068 14.2208 61.8774 15.0701C61.5654 15.9194 61.1234 16.6734 60.5514 17.3321C59.9794 17.9734 59.3034 18.4761 58.5234 18.8401C57.7608 19.1868 56.9201 19.3601 56.0014 19.3601ZM55.0394 16.3961C55.5941 16.3961 56.0968 16.2921 56.5474 16.0841C57.0154 15.8588 57.4141 15.5641 57.7434 15.2001C58.0901 14.8361 58.3501 14.4114 58.5234 13.9261C58.7141 13.4234 58.8094 12.9034 58.8094 12.3661C58.8094 11.6208 58.6534 10.9361 58.3414 10.3121C58.0468 9.67076 57.6308 9.15943 57.0934 8.7781C56.5734 8.39676 55.9581 8.2061 55.2474 8.2061C54.7448 8.2061 54.2594 8.32743 53.7914 8.5701C53.3408 8.79543 52.9334 9.10743 52.5694 9.5061C52.2228 9.90476 51.9454 10.3554 51.7374 10.8581V14.1081C51.8414 14.4548 52.0061 14.7668 52.2314 15.0441C52.4741 15.3214 52.7514 15.5641 53.0634 15.7721C53.3754 15.9628 53.6961 16.1188 54.0254 16.2401C54.3721 16.3441 54.7101 16.3961 55.0394 16.3961Z" fill="#2196F3"/>
<path d="M76.8479 5.4761C76.7266 5.35476 76.5013 5.1901 76.1719 4.9821C75.8599 4.7741 75.4699 4.57476 75.0019 4.3841C74.5513 4.19343 74.0573 4.02876 73.5199 3.8901C72.9826 3.7341 72.4366 3.6561 71.8819 3.6561C70.9113 3.6561 70.1746 3.8381 69.6719 4.2021C69.1866 4.5661 68.9439 5.07743 68.9439 5.7361C68.9439 6.23876 69.0999 6.63743 69.4119 6.9321C69.7239 7.22676 70.1919 7.4781 70.8159 7.6861C71.4399 7.8941 72.2199 8.11943 73.1559 8.3621C74.3693 8.65676 75.4179 9.02076 76.3019 9.4541C77.2033 9.8701 77.8879 10.4248 78.3559 11.1181C78.8413 11.7941 79.0839 12.6954 79.0839 13.8221C79.0839 14.8101 78.9019 15.6594 78.5379 16.3701C78.1739 17.0634 77.6713 17.6268 77.0299 18.0601C76.3886 18.4934 75.6606 18.8141 74.8459 19.0221C74.0313 19.2128 73.1646 19.3081 72.2459 19.3081C71.3273 19.3081 70.4086 19.2128 69.4899 19.0221C68.5713 18.8314 67.6873 18.5628 66.8379 18.2161C65.9886 17.8521 65.2086 17.4188 64.4979 16.9161L66.0839 13.8221C66.2399 13.9781 66.5173 14.1861 66.9159 14.4461C67.3146 14.6888 67.7999 14.9401 68.3719 15.2001C68.9439 15.4428 69.5679 15.6508 70.2439 15.8241C70.9199 15.9974 71.6046 16.0841 72.2979 16.0841C73.2686 16.0841 74.0053 15.9194 74.5079 15.5901C75.0106 15.2608 75.2619 14.7928 75.2619 14.1861C75.2619 13.6314 75.0626 13.1981 74.6639 12.8861C74.2653 12.5741 73.7106 12.3054 72.9999 12.0801C72.2893 11.8374 71.4486 11.5774 70.4779 11.3001C69.3166 10.9708 68.3459 10.6068 67.5659 10.2081C66.7859 9.7921 66.2053 9.2721 65.8239 8.6481C65.4426 8.0241 65.2519 7.2441 65.2519 6.3081C65.2519 5.04276 65.5466 3.98543 66.1359 3.1361C66.7426 2.26943 67.5573 1.61943 68.5799 1.1861C69.6026 0.73543 70.7379 0.510097 71.9859 0.510097C72.8526 0.510097 73.6673 0.60543 74.4299 0.796096C75.2099 0.986764 75.9379 1.2381 76.6139 1.5501C77.2899 1.8621 77.8966 2.2001 78.4339 2.5641L76.8479 5.4761ZM90.0966 18.3981C89.8019 18.5194 89.4466 18.6581 89.0306 18.8141C88.6146 18.9701 88.1639 19.0914 87.6786 19.1781C87.2106 19.2821 86.7339 19.3341 86.2486 19.3341C85.6072 19.3341 85.0179 19.2214 84.4806 18.9961C83.9432 18.7708 83.5099 18.4154 83.1806 17.9301C82.8686 17.4274 82.7126 16.7774 82.7126 15.9801V8.1541H80.9186V5.4761H82.7126V1.0561H86.1966V5.4761H89.0566V8.1541H86.1966V14.8101C86.2139 15.2781 86.3439 15.6161 86.5866 15.8241C86.8292 16.0321 87.1326 16.1361 87.4966 16.1361C87.8606 16.1361 88.2159 16.0754 88.5626 15.9541C88.9092 15.8328 89.1866 15.7288 89.3946 15.6421L90.0966 18.3981ZM92.5611 14.0041V5.4761H96.0451V13.2501C96.0451 14.2901 96.2357 15.0788 96.6171 15.6161C96.9984 16.1361 97.5617 16.3961 98.3071 16.3961C98.7577 16.3961 99.1997 16.3094 99.6331 16.1361C100.084 15.9454 100.491 15.6681 100.855 15.3041C101.236 14.9401 101.557 14.4808 101.817 13.9261V5.4761H105.301V15.2001C105.301 15.5641 105.362 15.8241 105.483 15.9801C105.622 16.1361 105.838 16.2314 106.133 16.2661V19.1001C105.786 19.1521 105.492 19.1868 105.249 19.2041C105.024 19.2388 104.816 19.2561 104.625 19.2561C104.001 19.2561 103.49 19.1174 103.091 18.8401C102.71 18.5454 102.484 18.1468 102.415 17.6441L102.337 16.5521C101.73 17.4708 100.95 18.1728 99.9971 18.6581C99.0437 19.1261 97.9951 19.3601 96.8511 19.3601C95.4471 19.3601 94.3811 18.9094 93.6531 18.0081C92.9251 17.0894 92.5611 15.7548 92.5611 14.0041ZM108.711 12.2881C108.711 10.9708 108.971 9.78343 109.491 8.7261C110.011 7.65143 110.731 6.8021 111.649 6.1781C112.568 5.5541 113.617 5.2421 114.795 5.2421C115.801 5.2421 116.702 5.49343 117.499 5.9961C118.314 6.48143 118.947 7.10543 119.397 7.8681V0.120097H122.881V15.2001C122.881 15.5641 122.942 15.8241 123.063 15.9801C123.185 16.1361 123.393 16.2314 123.687 16.2661V19.1001C123.081 19.2214 122.587 19.2821 122.205 19.2821C121.581 19.2821 121.061 19.1261 120.645 18.8141C120.247 18.5021 120.021 18.0948 119.969 17.5921L119.917 16.7341C119.415 17.5834 118.73 18.2334 117.863 18.6841C117.014 19.1348 116.121 19.3601 115.185 19.3601C114.249 19.3601 113.383 19.1781 112.585 18.8141C111.805 18.4501 111.121 17.9474 110.531 17.3061C109.959 16.6648 109.509 15.9194 109.179 15.0701C108.867 14.2034 108.711 13.2761 108.711 12.2881ZM119.397 14.1081V10.8581C119.224 10.3554 118.947 9.90476 118.565 9.5061C118.184 9.10743 117.759 8.79543 117.291 8.5701C116.823 8.32743 116.355 8.2061 115.887 8.2061C115.35 8.2061 114.865 8.31876 114.431 8.5441C113.998 8.76943 113.617 9.07276 113.287 9.4541C112.975 9.83543 112.733 10.2774 112.559 10.7801C112.403 11.2828 112.325 11.8114 112.325 12.3661C112.325 12.9208 112.412 13.4494 112.585 13.9521C112.776 14.4374 113.045 14.8621 113.391 15.2261C113.738 15.5901 114.137 15.8761 114.587 16.0841C115.055 16.2921 115.558 16.3961 116.095 16.3961C116.425 16.3961 116.754 16.3441 117.083 16.2401C117.43 16.1188 117.751 15.9628 118.045 15.7721C118.357 15.5641 118.626 15.3214 118.851 15.0441C119.094 14.7494 119.276 14.4374 119.397 14.1081ZM127.081 19.1001V5.4761H130.565V19.1001H127.081ZM127.081 3.5781V0.120097H130.565V3.5781H127.081ZM140.78 19.3601C139.671 19.3601 138.674 19.1781 137.79 18.8141C136.906 18.4328 136.152 17.9128 135.528 17.2541C134.921 16.5954 134.453 15.8414 134.124 14.9921C133.795 14.1428 133.63 13.2501 133.63 12.3141C133.63 11.3608 133.795 10.4594 134.124 9.6101C134.453 8.76076 134.921 8.00676 135.528 7.3481C136.152 6.68943 136.906 6.1781 137.79 5.8141C138.674 5.43276 139.671 5.2421 140.78 5.2421C141.889 5.2421 142.877 5.43276 143.744 5.8141C144.628 6.1781 145.382 6.68943 146.006 7.3481C146.63 8.00676 147.098 8.76076 147.41 9.6101C147.739 10.4594 147.904 11.3608 147.904 12.3141C147.904 13.2501 147.739 14.1428 147.41 14.9921C147.098 15.8414 146.63 16.5954 146.006 17.2541C145.399 17.9128 144.654 18.4328 143.77 18.8141C142.886 19.1781 141.889 19.3601 140.78 19.3601ZM137.218 12.3141C137.218 13.1114 137.374 13.8221 137.686 14.4461C137.998 15.0528 138.423 15.5294 138.96 15.8761C139.497 16.2228 140.104 16.3961 140.78 16.3961C141.439 16.3961 142.037 16.2228 142.574 15.8761C143.111 15.5121 143.536 15.0268 143.848 14.4201C144.177 13.7961 144.342 13.0854 144.342 12.2881C144.342 11.5081 144.177 10.8061 143.848 10.1821C143.536 9.5581 143.111 9.07276 142.574 8.7261C142.037 8.37943 141.439 8.2061 140.78 8.2061C140.104 8.2061 139.497 8.3881 138.96 8.7521C138.423 9.09876 137.998 9.5841 137.686 10.2081C137.374 10.8148 137.218 11.5168 137.218 12.3141Z" fill="black"/>
</g>
<defs>
<filter id="filter0_d_1_1065" x="0" y="0.120117" width="151.904" height="27.24" filterUnits="userSpaceOnUse" color-interpolation-filters="sRGB">
<feFlood flood-opacity="0" result="BackgroundImageFix"/>
<feColorMatrix in="SourceAlpha" type="matrix" values="0 0 0 0 0 0 0 0 0 0 0 0 0 0 0 0 0 0 127 0" result="hardAlpha"/>
<feOffset dy="4"/>
<feGaussianBlur stdDeviation="2"/>
<feComposite in2="hardAlpha" operator="out"/>
<feColorMatrix type="matrix" values="0 0 0 0 0 0 0 0 0 0 0 0 0 0 0 0 0 0 0.25 0"/>
<feBlend mode="normal" in2="BackgroundImageFix" result="effect1_dropShadow_1_1065"/>
<feBlend mode="normal" in="SourceGraphic" in2="effect1_dropShadow_1_1065" result="shape"/>
</filter>
</defs>
</svg>
